<svg width="40" height="40" viewBox="0 0 40 40" fill="none" xmlns="http://www.w3.org/2000/svg">
<path d="M24.7656 11.496H32.5586V13.3866H24.7656V11.496ZM16.957 18.9765C18.6797 18.1522 19.582 16.8983 19.582 14.9608C19.582 11.1288 16.7305 10.1991 13.4375 10.1991H4.375V29.4335H13.6914C17.1836 29.4335 20.4609 27.7538 20.4609 23.8476C20.4609 21.4335 19.3203 19.6483 16.957 18.9765ZM8.60156 13.4804H12.5664C14.0938 13.4804 15.4648 13.9061 15.4648 15.6796C15.4648 17.3124 14.3984 17.9686 12.8867 17.9686H8.60156V13.4804ZM13.1133 26.1679H8.59766V20.871H13.2031C15.0625 20.871 16.2383 21.6483 16.2383 23.6171C16.2383 25.5546 14.8359 26.1679 13.1133 26.1679ZM35.6055 22.6718C35.6055 18.5507 33.1953 15.1171 28.8359 15.1171C24.5977 15.1171 21.7148 18.3085 21.7148 22.4921C21.7148 26.828 24.4453 29.8046 28.8359 29.8046C32.1602 29.8046 34.3125 28.3085 35.3477 25.1171H31.9766C31.6094 26.3085 30.1172 26.9335 28.957 26.9335C26.7148 26.9335 25.543 25.621 25.543 23.3905H35.5781C35.5898 23.1601 35.6055 22.9179 35.6055 22.6718ZM25.543 20.9765C25.6641 19.1444 26.8867 17.9999 28.7148 17.9999C30.6367 17.9999 31.5977 19.1288 31.7656 20.9765H25.543Z" fill="#101010"/>
</svg>
