<svg width="40" height="40" viewBox="0 0 40 40" fill="none" xmlns="http://www.w3.org/2000/svg">
<path d="M20.0001 11.9885C15.5665 11.9885 11.9883 15.5667 11.9883 20.0002C11.9883 24.4338 15.5665 28.012 20.0001 28.012C24.4337 28.012 28.0118 24.4338 28.0118 20.0002C28.0118 15.5667 24.4337 11.9885 20.0001 11.9885ZM20.0001 25.2073C17.1329 25.2073 14.793 22.8674 14.793 20.0002C14.793 17.1331 17.1329 14.7932 20.0001 14.7932C22.8673 14.7932 25.2071 17.1331 25.2071 20.0002C25.2071 22.8674 22.8673 25.2073 20.0001 25.2073ZM28.3399 9.79322C27.3048 9.79322 26.4688 10.6292 26.4688 11.6643C26.4688 12.6995 27.3048 13.5354 28.3399 13.5354C29.3751 13.5354 30.211 12.7034 30.211 11.6643C30.2113 11.4185 30.1631 11.1751 30.0692 10.9479C29.9753 10.7208 29.8375 10.5144 29.6637 10.3406C29.4899 10.1668 29.2835 10.0289 29.0563 9.93502C28.8292 9.8411 28.5857 9.79291 28.3399 9.79322ZM35.6173 20.0002C35.6173 17.844 35.6368 15.7073 35.5157 13.5549C35.3946 11.0549 34.8243 8.83619 32.9962 7.00806C31.1641 5.17603 28.9493 4.60963 26.4493 4.48853C24.293 4.36744 22.1563 4.38697 20.004 4.38697C17.8477 4.38697 15.711 4.36744 13.5587 4.48853C11.0587 4.60963 8.83991 5.17994 7.01178 7.00806C5.17975 8.84009 4.61334 11.0549 4.49225 13.5549C4.37116 15.7112 4.39069 17.8479 4.39069 20.0002C4.39069 22.1526 4.37116 24.2932 4.49225 26.4456C4.61334 28.9456 5.18366 31.1643 7.01178 32.9924C8.84381 34.8245 11.0587 35.3909 13.5587 35.512C15.7149 35.6331 17.8516 35.6135 20.004 35.6135C22.1602 35.6135 24.2969 35.6331 26.4493 35.512C28.9493 35.3909 31.168 34.8206 32.9962 32.9924C34.8282 31.1604 35.3946 28.9456 35.5157 26.4456C35.6407 24.2932 35.6173 22.1565 35.6173 20.0002ZM32.1798 29.2112C31.8946 29.9221 31.5508 30.4534 31.0001 31.0002C30.4493 31.551 29.9219 31.8948 29.211 32.1799C27.1563 32.9963 22.2774 32.8127 20.0001 32.8127C17.7227 32.8127 12.8399 32.9963 10.7852 32.1838C10.0743 31.8987 9.54303 31.5549 8.99616 31.0042C8.44538 30.4534 8.10163 29.926 7.81647 29.2151C7.00397 27.1565 7.18756 22.2776 7.18756 20.0002C7.18756 17.7229 7.00397 12.8401 7.81647 10.7854C8.10163 10.0745 8.44538 9.54322 8.99616 8.99634C9.54694 8.44947 10.0743 8.10181 10.7852 7.81666C12.8399 7.00416 17.7227 7.18775 20.0001 7.18775C22.2774 7.18775 27.1602 7.00416 29.2149 7.81666C29.9258 8.10181 30.4571 8.44556 31.004 8.99634C31.5548 9.54713 31.8985 10.0745 32.1837 10.7854C32.9962 12.8401 32.8126 17.7229 32.8126 20.0002C32.8126 22.2776 32.9962 27.1565 32.1798 29.2112Z" fill="#101010"/>
</svg>
