<svg width="100" height="100" viewBox="0 0 100 100" fill="none" xmlns="http://www.w3.org/2000/svg">
<path d="M100 50C100 77.6142 77.6142 100 50 100C22.3858 100 0 77.6142 0 50C0 22.3858 22.3858 0 50 0C77.6142 0 100 22.3858 100 50Z" fill="#12FF84"/>
<path d="M37.2003 24.7768L37.2003 18.3335L57.3015 18.3335L57.3015 24.7768L52.8636 24.7768L52.8636 39.8971C52.8636 41.8444 53.3277 43.3621 54.2559 44.4503C55.1841 45.5385 56.4894 46.0826 58.1717 46.0826C60.4922 46.0826 63.0738 45.2522 65.9164 43.5912L65.9164 24.7768L61.5654 24.7768L61.5654 18.3335L81.6667 18.3335L81.6667 24.7768L76.5326 24.7768L76.5326 61.9761L81.5797 61.9761L81.5797 68.3335L65.9164 68.3335L65.9164 49.4332C61.7975 52.0677 57.8236 53.385 53.9948 53.385C50.4561 53.385 47.6425 52.2968 45.554 50.1204C43.4076 48.0013 42.3344 45.1663 42.3344 41.6153L42.3344 24.7768L37.2003 24.7768Z" fill="#183325"/>
<path d="M35.3552 28.0414L25 28.0414L25 18.3335L35.3552 18.3335L35.3552 28.0414Z" fill="#183325"/>
<path d="M62.7998 75.2232V81.6665H42.6985V75.2232H47.1365V60.1029C47.1365 58.1556 46.6724 56.6379 45.7442 55.5497C44.816 54.4615 43.5107 53.9174 41.8283 53.9174C39.5079 53.9174 36.9263 54.7478 34.0837 56.4088V75.2232H38.4346V81.6665H18.3334V75.2232H23.4675V38.0239H18.4204V31.6665H34.0837V50.5668C38.2026 47.9323 42.1764 46.615 46.0052 46.615C49.544 46.615 52.3576 47.7032 54.446 49.8796C56.5925 51.9987 57.6657 54.8337 57.6657 58.3847V75.2232H62.7998Z" fill="#183325"/>
<path d="M64.6448 71.9586H75V81.6665H64.6448V71.9586Z" fill="#183325"/>
</svg>
