<svg width="65" height="65" xmlns="http://www.w3.org/2000/svg">

 <g>
  <rect fill="none" id="canvas_background" height="67" width="67" y="-1" x="-1"/>
 </g>
 <g>
  <path fill="#ffffff" id="svg_1" d="m32.573692,0c-17.924755,0 -32.452783,14.530733 -32.452783,32.452782s14.528028,32.452782 32.452783,32.452782s32.452782,-14.530731 32.452782,-32.452782s-14.52803,-32.452782 -32.452782,-32.452782zm26.732979,30.941021c-6.963829,-1.141254 -13.367847,-1.203457 -19.209347,-0.19742c-0.65987,-1.522575 -1.344086,-3.04245 -2.074268,-4.54339c6.247158,-2.704399 11.263817,-6.37697 15.003998,-11.039354c3.65094,4.310812 5.941566,9.787218 6.279617,15.780165zm-10.390305,-19.693429c-3.258801,4.202635 -7.75621,7.526341 -13.484123,9.952188c-2.747673,-5.032885 -5.890184,-9.941369 -9.432945,-14.706519c2.106726,-0.532766 4.302698,-0.849181 6.574394,-0.849181c6.1525,0 11.812809,2.106726 16.342674,5.603513zm-28.439451,-2.685467c3.599556,4.711061 6.790747,9.568162 9.565458,14.552367c-6.571688,1.933645 -14.41715,2.926159 -23.484996,2.988363c1.871444,-7.666971 7.03414,-14.043943 13.919538,-17.54073zm-14.711926,23.890656l0.035157,-0.692326c10.40923,-0.013523 19.387833,-1.211575 26.908766,-3.575216c0.630123,1.28459 1.233204,2.574585 1.811943,3.872698c-9.140863,2.858551 -16.672615,8.71357 -22.546569,17.524498c-3.872697,-4.648857 -6.209297,-10.620171 -6.209297,-17.129654zm10.35514,21.121349c5.324963,-8.351181 12.121115,-13.787022 20.548019,-16.299408c2.509682,6.544643 4.351379,13.278595 5.525089,20.174812c-9.05703,3.491375 -18.803684,1.801128 -26.073109,-3.875404zm31.333164,1.162891c-1.184532,-6.363453 -2.92075,-12.583565 -5.192448,-18.652233c5.073452,-0.716667 10.655327,-0.530064 16.764568,0.530056c-1.181828,7.534462 -5.484524,14.041245 -11.572121,18.122177z"/>
 </g>
</svg>
