<svg width="68" height="65" xmlns="http://www.w3.org/2000/svg">
 <g>
  <rect fill="none" id="canvas_background" height="67" width="70" y="-1" x="-1"/>
 </g>
 <g>
  <g id="svg_1">
   <path fill="#FFFFFF" d="m66.985596,39.930134l0,24.663715l-14.298462,0l0,-23.011887c0,-5.780777 -2.068115,-9.725924 -7.243683,-9.725924c-3.950893,0 -6.302071,2.658739 -7.336441,5.230623c-0.377205,0.919441 -0.474297,2.199177 -0.474297,3.486206l0,24.020981l-14.30327,0c0,0 0.192636,-38.974562 0,-43.012594l14.301874,0l0,6.09683c-0.029003,0.045601 -0.066696,0.094763 -0.093994,0.138968l0.093994,0l0,-0.138968c1.900143,-2.926584 5.293598,-7.107307 12.88921,-7.107307c9.410454,-0.000156 16.465069,6.147545 16.465069,19.359356zm-58.617982,-39.083125c-4.89313,0 -8.093641,3.209506 -8.093641,7.430122c0,4.128651 3.107916,7.435568 7.903798,7.435568l0.095542,0c4.987897,0 8.089919,-3.306296 8.089919,-7.435568c-0.093992,-4.220616 -3.102022,-7.430122 -7.995618,-7.430122zm-7.244152,63.74684l14.297842,0l0,-43.012594l-14.297842,0l0,43.012594z" id="LinkedIn"/>
  </g>
 </g>
</svg>
