<svg width="100" height="63" xmlns="http://www.w3.org/2000/svg">
  <g id="svg_1">
   <path fill="#171717" d="m90.215424,9.268137l-24.961502,0l0,-6.200249l24.963577,0l0,6.200249l-0.002075,0zm-41.578949,25.42518c1.610626,2.49469 2.415482,5.523708 2.415482,9.079872c0,3.67754 -0.907455,6.976612 -2.753635,9.890751c-1.174503,1.928398 -2.632729,3.557327 -4.384872,4.868706c-1.973335,1.516594 -4.309601,2.556526 -6.995369,3.112175c-2.69434,0.556557 -5.610565,0.837738 -8.751915,0.837738l-27.916164,0l0,-61.986254l29.93582,0c7.545675,0.122753 12.895216,2.308937 16.054167,6.602322c1.895508,2.633194 2.834698,5.792845 2.834698,9.465509c0,3.789635 -0.950539,6.821896 -2.864574,9.125736c-1.064716,1.291698 -2.637592,2.466663 -4.719784,3.527214c3.153858,1.154583 5.546871,2.972736 7.146149,5.476231zm-34.090935,-9.758965l13.116636,0c2.695499,0 4.874502,-0.512325 6.552759,-1.53651c1.677101,-1.022568 2.513916,-2.840256 2.513916,-5.450058c0,-2.883335 -1.108032,-4.797142 -3.329418,-5.71826c-1.909409,-0.639942 -4.352449,-0.969528 -7.316849,-0.969528l-11.537045,0l0,13.674356zm23.446293,17.953384c0,-3.219868 -1.316025,-5.445885 -3.942734,-6.640308c-1.468876,-0.678852 -3.541342,-1.02581 -6.198622,-1.050594l-13.304937,0l0,16.519009l13.099035,0c2.691097,0 4.773981,-0.352272 6.277143,-1.087181c2.710781,-1.351219 4.070114,-3.922806 4.070114,-7.740925zm61.48505,-10.084145c0.301552,2.027992 0.437973,4.97039 0.382622,8.816303l-32.327904,0c0.178329,4.462227 1.718788,7.582733 4.640343,9.368462c1.761864,1.119843 3.898018,1.666679 6.399429,1.666679c2.637596,0 4.787407,-0.666809 6.442276,-2.037491c0.901665,-0.726563 1.697021,-1.752144 2.384674,-3.046158l11.849258,0c-0.310356,2.635506 -1.737083,5.308548 -4.301025,8.024887c-3.972382,4.317474 -9.543564,6.482346 -16.698517,6.482346c-5.910736,0 -11.119911,-1.82579 -15.641441,-5.464188c-4.506466,-3.651123 -6.769779,-9.57251 -6.769779,-17.786617c0,-7.702709 2.031933,-13.598385 6.109455,-17.702084c4.092583,-4.111343 9.374252,-6.157631 15.884628,-6.157631c3.858887,0 7.337463,0.689735 10.440834,2.076401c3.093636,1.388046 5.650398,3.572609 7.664024,6.574993c1.822319,2.644077 2.994278,5.701355 3.541122,9.184097zm-11.663284,1.15667c-0.217239,-3.085529 -1.247459,-5.420872 -3.102425,-7.016907c-1.839699,-1.600437 -4.137985,-2.403904 -6.880272,-2.403904c-2.984543,0 -5.289078,0.858818 -6.926575,2.546806c-1.648613,1.684517 -2.674423,3.974689 -3.094795,6.874237l20.004066,0l0,-0.000233z" id="Behance"/>
  </g>
</svg>
