<?xml version="1.0" standalone="no"?>
<!DOCTYPE svg PUBLIC "-//W3C//DTD SVG 20010904//EN"
 "http://www.w3.org/TR/2001/REC-SVG-20010904/DTD/svg10.dtd">
<svg version="1.0" xmlns="http://www.w3.org/2000/svg"
 width="280.000000pt" height="280.000000pt" viewBox="0 0 280.000000 280.000000"
 preserveAspectRatio="xMidYMid meet">
<metadata>
Created by potrace 1.11, written by Peter Selinger 2001-2013
</metadata>
<g transform="translate(0.000000,280.000000) scale(0.100000,-0.100000)"
fill="#000000" stroke="none">
<path d="M190 2403 c0 -31 1 -31 60 -38 84 -10 122 -37 138 -100 9 -39 12
-243 10 -895 -3 -776 -4 -848 -20 -876 -19 -34 -78 -64 -127 -64 -47 0 -61
-10 -61 -41 l0 -29 335 0 335 0 0 29 c0 31 -14 41 -61 41 -49 0 -108 30 -127
64 -14 26 -17 66 -20 246 l-2 215 24 -68 c80 -218 218 -378 401 -462 144 -67
138 -66 873 -63 658 3 663 3 657 23 -4 11 -9 151 -11 310 l-5 290 -29 3 c-27
3 -29 1 -35 -45 -39 -312 -77 -399 -198 -462 -62 -32 -73 -34 -190 -39 l-124
-5 -6 204 c-4 112 -7 257 -7 322 l0 118 -32 -3 -32 -3 -12 -95 c-18 -139 -39
-221 -78 -297 -40 -77 -100 -152 -113 -140 -10 11 -11 1693 0 1703 13 13 73
-64 116 -147 29 -57 43 -105 60 -195 32 -177 27 -164 61 -164 l30 0 0 113 c0
61 3 210 7 330 l6 219 -34 -4 c-32 -3 -34 -5 -41 -52 -8 -60 -25 -103 -44
-110 -11 -4 -80 41 -128 85 -13 12 49 36 112 45 51 6 52 7 52 40 l0 34 -326 0
c-304 0 -332 -2 -398 -21 -248 -74 -432 -263 -532 -548 l-24 -66 1 215 c0 137
5 229 13 255 15 52 59 81 136 90 59 7 60 7 60 38 l0 32 -335 0 -335 0 0 -32z
m1209 -56 c13 -7 34 -25 45 -40 20 -28 21 -41 24 -448 l3 -419 -305 0 -306 0
0 76 c0 278 106 598 243 738 83 83 155 119 222 110 28 -3 61 -11 74 -17z m69
-1399 c-3 -466 -3 -464 -65 -493 -84 -40 -187 -3 -299 109 -148 147 -230 395
-247 739 l-3 67 308 0 309 0 -3 -422z m451 -407 c6 -10 13 -37 17 -60 l7 -41
-49 0 c-53 0 -120 15 -129 30 -8 13 96 90 122 90 12 0 27 -8 32 -19z"/>
</g>
</svg>
