<svg version="1" xmlns="http://www.w3.org/2000/svg" width="933.333" height="933.333" viewBox="0 0 700.000000 700.000000"><path d="M175 162v34h73l-.2-33.8-.3-33.7-36.2-.3-36.3-.2v34z"/><path d="M260.7 128.7c-.4.3-.7 10.5-.7 22.5V173h35.9l.3 66.7.4 66.8 2.5 9c1.4 4.9 2.9 9.7 3.3 10.6.6 1.3-.8 1.9-7.6 3.3-14.1 3-37.6 12.8-50.8 21.1-2.2 1.4-4.2 2.5-4.5 2.5-.3 0-.5-29.5-.5-65.5V222H129v44h35v260l-17.7.2-17.8.3-.3 22.7-.2 22.8h141v-46h-30V394.4l8.4-4.2c4.5-2.2 10.7-5.1 13.6-6.2 15.8-6.2 35.9-7.9 46.7-3.9 6.7 2.6 13.8 9.2 17.1 16 4.9 10 5.2 14.5 5.2 74.1V526h-31v46l70.3-.2 70.2-.3v-45l-17.7-.3-17.7-.2-.3-66.3-.4-66.2-2.5-9c-1.4-5-2.9-9.7-3.3-10.6-.6-1.3.4-1.8 5.5-2.8 14.3-2.8 36.4-11.8 50.9-20.6 3.2-1.9 6-3.5 6.4-3.5.3 0 .6 29.5.6 65.5V478h110v-44h-35V173h36v-45H431v45h30v132.7l-12.1 5.7c-17 8.1-28.3 10.8-42.4 10.4-9.7-.3-11.7-.7-16.7-3.1-6.2-3.1-11.6-8.6-14.8-15.2-4.6-9.6-5-14.5-5-74.3V173h31v-45h-69.8c-38.4 0-70.2.3-70.5.7z"/><path d="M452.2 537.7l.3 33.8 36.3.3 36.2.2v-68h-73l.2 33.7z"/></svg>