<svg xmlns="http://www.w3.org/2000/svg" viewBox="0 0 297.81 100"><defs><style>.cls-1{fill:#549c5e;}.cls-2{fill:#223156;}</style></defs><title>Asset 11</title><g id="Layer_2" data-name="Layer 2"><g id="Export"><g id="_100px" data-name="100px"><g id="Text"><path class="cls-1" d="M28.14,33.54a7.08,7.08,0,0,1,0,1.31l-.08.66v.66A9.3,9.3,0,0,1,27.7,39l-.29,1.31a8.44,8.44,0,0,0-.15,1.54c-.05.14-.22.78-.51,1.9l-.15.66-.14.58c-.1.39-.18.66-.22.8a12.79,12.79,0,0,1-1.1,3.51,5.87,5.87,0,0,1-1,1.32l-.3.22-.21.22-.3.22a5.32,5.32,0,0,1-.51.43,3.19,3.19,0,0,1-.51.37c-.15,0-.51.15-1.09.29l-.66.15-.66.22a5.86,5.86,0,0,1-.95.22,4.61,4.61,0,0,1-.95.21h-.8c-.35,0-.59-.07-.73-.07a1.33,1.33,0,0,0-.74-.07,5,5,0,0,1-2.33-.37A3.85,3.85,0,0,0,12,52.39a3,3,0,0,1-2.05-1l-.22-.14-.22-.15a3.55,3.55,0,0,1-1.31-.88l-.59-.51L7,49.18a20.51,20.51,0,0,1-2.85-4.61L3.88,44l-.29-.59a6.4,6.4,0,0,1-.52-1.09l-.29-1.1-.29-1a9.74,9.74,0,0,1-.59-2.12l-.14-.59-.22-.58a2.25,2.25,0,0,1-.22-1.17A6.54,6.54,0,0,0,1,34.12l-.15-.73-.14-.8L.59,29.08V27.91l.15-3,.21-3c.05-.53.17-1.34.37-2.41l.22-1.24L1.76,17a11.16,11.16,0,0,1,.51-2.27l.36-1.17.3-1.09.51-1.61L4,9.35l.37-.73L4.75,8l.15-.22A10.33,10.33,0,0,1,6.36,6.28l.73-.73.73-.65a11.46,11.46,0,0,1,1.1-1L10,3.14l.3-.22.36-.14,2.41-1.25a2.4,2.4,0,0,1,1-.21l.8-.08.8-.07a3.94,3.94,0,0,1,1.1,0,17.4,17.4,0,0,1,2.34.58l.73.22.66.3.8.29.8.36.37.3q.58.43.66.51A1.33,1.33,0,0,1,23.9,4.9a1.45,1.45,0,0,1-1.1,1.24l-.36.14-.37.15-.87.29a11.26,11.26,0,0,1-2.86-.44l-.73-.07h-.73a5.6,5.6,0,0,0-1.82.73,10.87,10.87,0,0,0-1.46.95,5.54,5.54,0,0,1-.81,1,3.35,3.35,0,0,0-.87,1.32l-.37,1.17A5,5,0,0,1,11,12.5l-.08.21v.22l-.58,3.8-.22,1.61-.22,1.53c0,.4-.07,1.39-.07,3s.07,2.61.07,3.29v.95L10,30.32v1.76l.08,1.75a27.12,27.12,0,0,0,.51,4.24l.29,1.32.37,1.38a7.56,7.56,0,0,0,.66,1.61,11.79,11.79,0,0,0,3.36,4.17,3.14,3.14,0,0,0,1,.43l.58.15.59.15a3.12,3.12,0,0,0,1.46-.08,1.82,1.82,0,0,0,1.39-1,13.88,13.88,0,0,0,1.09-3.07l.3-1.17.36-1.09c.29-.93.49-1.64.59-2.12l.14-.95.15-1a8.94,8.94,0,0,0,.07-2A10.15,10.15,0,0,1,23,33v-.88l.07-.95a2.74,2.74,0,0,0-.14-.88l-.22-.87a7.78,7.78,0,0,1-.29-1.83,6.35,6.35,0,0,0-.22-1.31l-.15-.66L22,25l-.07-.36-1.83-.15-1-.15A2.77,2.77,0,0,1,18.2,24a2.42,2.42,0,0,1-1.39-1.46,4.54,4.54,0,0,1-.22-1.32,1.1,1.1,0,0,1,.29-1c.2-.19.66-.24,1.39-.14l.81.07h.36l.29.07c.54.05,1.05.07,1.54.07l.51.08h.51c.78.05,1.63.12,2.56.22a5.16,5.16,0,0,1,1.46.36c.15.05.24.2.29.44a5.25,5.25,0,0,1,.15.58v.15a1.75,1.75,0,0,1,.14.44c.05.19.17.9.37,2.12l.07.66.08.58a2.83,2.83,0,0,0,.14.8l.07,1.17.15,2,.07.65a4.87,4.87,0,0,1,.08.59L28,32.37Z"/><path class="cls-1" d="M59.26,48A9.41,9.41,0,0,1,60.14,52v.88l-.07.22-1.39,1.17-1.24-.08-.52-.07h-.36L56.12,54a1.46,1.46,0,0,1-.95-.22l-.36-.22-.44-.22a1.31,1.31,0,0,1-.66-.51L53.27,52a2.15,2.15,0,0,1-.36-.87,5.38,5.38,0,0,0-.59-1.68L52,48.52l-.3-.8a2.92,2.92,0,0,0-.73-1.32l-.51-.73L50,44.86a47.76,47.76,0,0,0-2.77-4.38l-.37-.58-.36-.59-1.1-1.61-.15-.07-.07-.15-.73.3L44.65,40v.22l.07.22a5.67,5.67,0,0,0,0,1.31L44.94,43v1.24a22.79,22.79,0,0,1,.08,3v.8l.07.88a5.79,5.79,0,0,1-.22,2.85,1.44,1.44,0,0,1-.66.73l-.58.29-1,.44a8.47,8.47,0,0,1-1.68.66h-1.6l-.66-.3-.37-.14-.36-.08-.3-.07-.21-.07a1.33,1.33,0,0,1-.3-.08L36.76,53A1.69,1.69,0,0,0,36,52.9c-.14.05-.36-.07-.65-.36a1.48,1.48,0,0,1-.44-.81,3.24,3.24,0,0,0-.66-1.53,3.07,3.07,0,0,1-.44-1.54c0-1.12-.1-2.43-.14-3.94v-.95l-.08-.66v-.73c0-1.27-.07-2-.07-2.26l-.07-2v-.29l-.08-.37V35.8l-.07-.58v-.51l-.07-3.44L33,28.86,33,28l-.07-2.2-.22-2.19-.22-1.9-.22-1.9V19l-.29-2.27v-1l-.15-1.9L31.72,12a9.83,9.83,0,0,1-.08-1.38l.08-1.39c0-.73,0-1.37-.08-1.9a13.53,13.53,0,0,1,0-2.85c.05-1.46.1-2.31.15-2.56l.44-.22.8-.36A8.61,8.61,0,0,1,34.57.8l.36.08h.44l.44.07a6.35,6.35,0,0,0,1.53.15h.73a4.07,4.07,0,0,1,.81.07A1.52,1.52,0,0,0,39.83,1a1.26,1.26,0,0,1,.87,0l.52.07A1,1,0,0,0,41.65,1L42.24.8l.58-.14a4.42,4.42,0,0,1,2-.44l.29.07A6.06,6.06,0,0,1,48.45.8a17.27,17.27,0,0,1,3.94,2.12l.37.22a8,8,0,0,1,2.92,2.27l1.61,1.9.22.29.29.66.29.65a6.79,6.79,0,0,1,.59,1.32,18.72,18.72,0,0,1,.66,3.43v.81l-.08.73-.14,1.1-.15,1A7.32,7.32,0,0,1,58.75,19l-.22.87-.14.81a9.21,9.21,0,0,1-1.47,3.43l-.14.22-.73.66-.66.73A14.5,14.5,0,0,1,53.93,27l-.37.29-.29.29-1.9,1.46-.73.59-.73.51a.66.66,0,0,0-.29.8l.07.81.15.8a7,7,0,0,0,.8,1.46L52,35.8l1.31,1.76,1,1.68,1.1,1.68,1,1.46.88,1.46.66,1.24.58,1.32.37.8ZM44.43,26.82a9.87,9.87,0,0,0,2.48-1A20.17,20.17,0,0,0,50.13,24l1.1-.88a9.42,9.42,0,0,0,1-.95,8.25,8.25,0,0,0,1.17-5,34.46,34.46,0,0,0-.3-4.53,6.77,6.77,0,0,0-1.17-3.43,4.52,4.52,0,0,0-1.24-1.1l-.73-.44-.66-.51a9.42,9.42,0,0,1-1-.66l-.8-.44-1-.51L45.53,5a2.33,2.33,0,0,0-2.05.08.92.92,0,0,0-.44.43l-.07.3v.29l-.15.36-.07.37-.22.51a.63.63,0,0,0,.07.51,3.36,3.36,0,0,1,.15,2.34v.37l.15,2,.07.95v2.63l.14,1.61H43l.07,1.31.08,2.05v.66a2.3,2.3,0,0,0,.07.58l.15.44a4.73,4.73,0,0,1,.07.8l.07.74.08.58a7.18,7.18,0,0,1,0,1.32c0,.14.09.26.29.36l.22.07Z"/><path class="cls-1" d="M84.76,1.24a2.5,2.5,0,0,1,1.32.81l.36.36.22.37a1.25,1.25,0,0,1,.15,1,3.42,3.42,0,0,1-.29.58l-.22.22-.15.15a1.54,1.54,0,0,1-.51.8l-.44.3-.44.21a1.49,1.49,0,0,1-.65.22l-.74.15-.8.15-.51.14h-.51a2.53,2.53,0,0,0-1,.08h-.59l-.73-.08a7.63,7.63,0,0,0-1.39,0l-1.53.44a.92.92,0,0,0-.59.73V9.13a5.38,5.38,0,0,1,0,1.32l-.22,1.24a12.83,12.83,0,0,0-.29,2.19L75.12,15l-.07,1.1v.22a5.57,5.57,0,0,0-.15,2l.07.51v.44c0,.29.08.46.08.51l-.15.44-.07.51a2.75,2.75,0,0,1,0,.81l-.08.29a.8.8,0,0,0-.07.36v.95l-.07.88c0,.29.19.44.58.44l.59-.07,4.6-.66a1.24,1.24,0,0,1,.88.14.77.77,0,0,0,.36.08,2.49,2.49,0,0,1,1.61.51l.14.15.15.07a2,2,0,0,1,1.32,1.75,1.2,1.2,0,0,1-.15,1l-.29.37-.22.36a2.21,2.21,0,0,1-.73.59l-.08.07a1.93,1.93,0,0,1-1,.73l-.58.15-.59.07a15.94,15.94,0,0,0-2.34.37l-2.26.51a5.74,5.74,0,0,1-.8.07.57.57,0,0,0-.59.37c0,.19-.07,1.26-.07,3.21l-.07,1.25v1.24c0,1,0,1.73-.08,2.26a7.8,7.8,0,0,1,.08,2l-.15,1.31-.07,1.46c0,.78,0,1.49.07,2.12l.07.44v.44a11,11,0,0,1,.08,1.39.64.64,0,0,0,.22.73,1.3,1.3,0,0,0,.73.36c.19,0,.58,0,1.16.08h1.9a15.33,15.33,0,0,0,3-.08.47.47,0,0,1,.37,0,3.06,3.06,0,0,0,1.24.22h1.46a3.83,3.83,0,0,1,.58,2l-.36.66-.44.59a1,1,0,0,1-.51.36c-.54.05-2,.12-4.24.22l-1.32.07-1.16.08c-.83,0-1.42.09-1.76.14l-1.53.15L72.2,54A2,2,0,0,1,71,53.78l-.14-.07h-.15a3,3,0,0,1-1.24-.3l-.59-.22-.58-.29-.66-.29-.73-.22a1.32,1.32,0,0,1-.8-1.09.64.64,0,0,0-.51-.66.75.75,0,0,1-.44-.66l-.22-.66-.29-.73a3.93,3.93,0,0,1-.08-1.09,6.94,6.94,0,0,1,0-1.47,5.14,5.14,0,0,0,0-1.24l-.14-1.24a36.88,36.88,0,0,1,0-5L64.45,37V35.59a12.32,12.32,0,0,0,0-2l-.22-2.48L64,28.64c-.1-.82-.17-2.21-.22-4.16a25.2,25.2,0,0,1,.08-3.87V18.93a8.49,8.49,0,0,1,0-1.61l.07-.15a11,11,0,0,0,.29-2.12L64.3,14l.08-1,.22-2,.22-2.12a18.7,18.7,0,0,1,.29-1.9l.22-1L65.55,5l.14-.87.08-.81A1.87,1.87,0,0,1,66.5,2l.58-.44a1.71,1.71,0,0,1,.66-.29,3.88,3.88,0,0,1,.88-.14H71l.59.07a8.58,8.58,0,0,0,2.12-.07A13.68,13.68,0,0,1,76.07.8h1.24L78.55.73a8.81,8.81,0,0,0,1.9-.22,3.75,3.75,0,0,1,1.61.07l1.39.3Z"/><path class="cls-1" d="M109.61,1.24a2.46,2.46,0,0,1,1.31.81l.37.36.22.37a1.28,1.28,0,0,1,.14,1,2.8,2.8,0,0,1-.29.58l-.22.22-.15.15a1.43,1.43,0,0,1-.51.8l-.43.3-.44.21a1.59,1.59,0,0,1-.66.22l-.73.15-.8.15-.52.14h-.51a2.53,2.53,0,0,0-1,.08h-.59l-.73-.08a7.5,7.5,0,0,0-1.38,0l-1.54.44a.89.89,0,0,0-.58.73V9.13a6.71,6.71,0,0,1,0,1.32l-.22,1.24a11.81,11.81,0,0,0-.3,2.19L100,15l-.07,1.1v.22a5.57,5.57,0,0,0-.15,2l.08.51v.44c0,.29.07.46.07.51l-.15.44-.07.51a2.2,2.2,0,0,1,0,.81l-.07.29a.8.8,0,0,0-.08.36v.95l-.07.88c0,.29.19.44.58.44l.59-.07,4.6-.66a1.24,1.24,0,0,1,.88.14.8.8,0,0,0,.36.08,2.48,2.48,0,0,1,1.61.51l.15.15.14.07a2,2,0,0,1,1.32,1.75,1.14,1.14,0,0,1-.15,1l-.29.37-.22.36a2.11,2.11,0,0,1-.73.59l-.07.07a2,2,0,0,1-1,.73l-.59.15-.58.07a15.74,15.74,0,0,0-2.34.37l-2.27.51a5.74,5.74,0,0,1-.8.07.58.58,0,0,0-.59.37c0,.19-.07,1.26-.07,3.21l-.07,1.25v1.24c0,1,0,1.73-.07,2.26a7.92,7.92,0,0,1,.07,2l-.15,1.31-.07,1.46c0,.78,0,1.49.07,2.12l.08.44v.44a13.52,13.52,0,0,1,.07,1.39.64.64,0,0,0,.22.73,1.33,1.33,0,0,0,.73.36c.19,0,.58,0,1.17.08h1.9a15.26,15.26,0,0,0,3-.08.47.47,0,0,1,.37,0,3.06,3.06,0,0,0,1.24.22H110a3.83,3.83,0,0,1,.59,2l-.37.66-.44.59a.9.9,0,0,1-.51.36c-.53.05-1.95.12-4.24.22l-1.31.07-1.17.08c-.83,0-1.41.09-1.75.14l-1.54.15L97,54a1.91,1.91,0,0,1-1.24-.22l-.15-.07H95.5a3,3,0,0,1-1.24-.3l-.58-.22-.59-.29-.65-.29-.74-.22a1.34,1.34,0,0,1-.8-1.09.64.64,0,0,0-.51-.66A.77.77,0,0,1,90,50l-.22-.66-.29-.73a4.14,4.14,0,0,1-.07-1.09,6.94,6.94,0,0,1,0-1.47,5.14,5.14,0,0,0,0-1.24l-.15-1.24a36.88,36.88,0,0,1,0-5L89.29,37V35.59a12.32,12.32,0,0,0,0-2l-.21-2.48-.23-2.49c-.09-.82-.17-2.21-.21-4.16a25.75,25.75,0,0,1,.07-3.87V18.93a8.49,8.49,0,0,1,0-1.61l.07-.15a10.94,10.94,0,0,0,.3-2.12L89.15,14l.07-1,.22-2,.22-2.12c0-.49.15-1.12.29-1.9l.22-1L90.39,5l.15-.87.07-.81A1.9,1.9,0,0,1,91.34,2l.58-.44a1.78,1.78,0,0,1,.66-.29,3.88,3.88,0,0,1,.88-.14H95.8l.58.07A8.58,8.58,0,0,0,98.5,1.1a13.81,13.81,0,0,1,2.41-.3h1.24L103.4.73a9,9,0,0,0,1.9-.22,3.71,3.71,0,0,1,1.6.07l1.39.3Z"/><path class="cls-1" d="M140.73,2.05a8.2,8.2,0,0,1,.59,2.33,3,3,0,0,1,0,1l-.08,1-.14,1.09-.15,1-.22,2.12-.07,2-.15,1.75-.21,1.76v1.53l-.37,3.22-.29,2.19-.22,2.12L138.76,32v4.1a32.71,32.71,0,0,0,.15,3.43v2.41l-.08,4,.08,1.17a12.38,12.38,0,0,1-.51,4.45,1.77,1.77,0,0,1-1.1,1,.77.77,0,0,0-.29.14l-.3.22-.36.15a3.13,3.13,0,0,1-1.24.51,5.19,5.19,0,0,0-.73.22l-.59.07a2.31,2.31,0,0,0-.51.15,4.21,4.21,0,0,1-1.39-.22l-.36-.07-.37-.08a4.57,4.57,0,0,0-.51-.07,1.19,1.19,0,0,1-1.1-.66l-.73-1.17-.73-1.17-.66-1-.65-1c-.44-.78-.81-1.49-1.1-2.12l-.22-.8-.22-.74-.65-2.11-.3-1.32c-.1-.49-.17-.92-.22-1.31l-.22-.95-.22-1-.94-4.67-.3-1.47-.29-1.38-.15-.95-.21-1-.44-2.27-.44-2.56-.8-4.09c-.1-.29-.25-.44-.44-.44s-.3.15-.3.44L119,22.21l-.22,2.56-.29,5.41-.22,3.36-.14.88a7.6,7.6,0,0,0-.3,2.63l.22,4v.29l.08.36a14.53,14.53,0,0,1-.08,3.8,2.17,2.17,0,0,0,0,.81l.08.87v.73a1.86,1.86,0,0,1-.08.59l-.07.22a2.28,2.28,0,0,0,0,.87,2,2,0,0,1-.15,1.39.66.66,0,0,0-.07.3,2.82,2.82,0,0,1-.37,1.09l-.29.44-.36.44a.87.87,0,0,1-1.1.22l-.22-.15-.22-.07a.6.6,0,0,1-.66-.29l-.21-.22h-.22a.58.58,0,0,1-.59-.44l-.22-.81-.22-.8c0-.34,0-1,.08-2a9.75,9.75,0,0,1,.07-1.24l.07-.59a3.55,3.55,0,0,0,.08-.73l.14-1.53.15-1.47c0-1.07,0-2.26-.15-3.58a27.93,27.93,0,0,1,.07-4.67l.08-.88.07-.88.15-2.26.22-2.34.22-4.31.07-1.61L114.5,21V18.63l.15-2.19c.09-.83.22-1.58.36-2.26l.29-1.32.23-1.39c0-.24.09-.63.14-1.17l.07-1.46a8,8,0,0,1,.37-2.56l.51-1.53.59-1.53a8.65,8.65,0,0,1,.8-1.39l.15-.15.29-.15.44-.21.51-.3.73-.44.8-.36a1.45,1.45,0,0,1,1.32.07l.87.37.81.36a6.52,6.52,0,0,1,3,2.85l.08.44.22.73.14.73a6.44,6.44,0,0,0,.44,1.76l.29,1a2.15,2.15,0,0,1,.22.8,7.25,7.25,0,0,1,.22,1.61l.07.95c.05.29.1.53.15.73l.37,2.26.07.44a1.82,1.82,0,0,0,.36,1.39l.08.07V17l.22,1.32a9.77,9.77,0,0,1,.14,1.39,3.17,3.17,0,0,0,.15.87l.29.88.29.88a8,8,0,0,1,.22.95,13.11,13.11,0,0,0,.37,2l.29,1.39.29,1.46a2.78,2.78,0,0,1,.22.88l.07.87.08.22.14.29v-.14l.08-1.54.07-1.53v-2l.58-5.41v-.29a10.14,10.14,0,0,0,.44-2.2l.15-1.09.15-1.1.07-1.09.07-1.17v-.22l.07-.29v-1c0-.39.13-.8.22-1.24l.08-1.75-.15-.73a1.46,1.46,0,0,1,0-.66,12.65,12.65,0,0,1,.37-1.54l.22-1.75a5.5,5.5,0,0,1,.29-1.31l.22-.37.29-.29.22-.29c.24-.54.44-.81.58-.81h.08V.37a.44.44,0,0,1,.29-.37h.51l1.61.22h.14l.37.29.36.15.08.07.36.37a1,1,0,0,1,.29.43l.15.22S140.68,1.85,140.73,2.05Z"/><path class="cls-1" d="M178.58,49a3,3,0,0,1,.08.73,4.35,4.35,0,0,1-.22,1.75,3.45,3.45,0,0,1-.51,1,2.06,2.06,0,0,1-1.25.66,3.9,3.9,0,0,1-1.38.07,32.65,32.65,0,0,1-3.73-.21,3.08,3.08,0,0,1-1.32-.44,2,2,0,0,1-.58-.81,5.74,5.74,0,0,1-.29-1l-.08-.07-.07-.3-.44-2c-.14-.78-.24-1.46-.29-2a10.85,10.85,0,0,0-.22-2.19,1.27,1.27,0,0,0-.44-.88,1.66,1.66,0,0,1-.44-1l-.14-1.83c0-.38-.25-.53-.59-.43a3.83,3.83,0,0,1-1.53.29l-1.54.07h-2.55l-2.49-.07L157.1,40a9.28,9.28,0,0,1-1.46-.22l-1.1-.22-1.17-.21L151.91,39l-1.46-.37-.14-.07c-.49-.15-.76.05-.81.58a7.82,7.82,0,0,0,0,2.19l.15,1.39.07,1.46.29,2.49.22,1.68.22,1.68c.05.68.07,1.27.07,1.75l-.07.22a1.69,1.69,0,0,1-.73,1.68,1.36,1.36,0,0,1-.73.66,1.18,1.18,0,0,1-1.24-.51,2.26,2.26,0,0,1-.66-1.17c-.1-.44-.2-.92-.29-1.46l-.15-1.46-.22-3.88-.36-3.94V39.31l.07-1a10.32,10.32,0,0,0-.07-2.19,17.75,17.75,0,0,1-.08-1.9l.08-.73.14-.73.15-1.39-.07-.22-.08-.22A1.15,1.15,0,0,1,146,30l.59-3.87.22-1.68.29-1.68.29-1.76.37-1.75.29-1.46a10.13,10.13,0,0,1,.51-1.75l.59-1.76a14.55,14.55,0,0,1,1.38-2.77l.15-.3.07-.29a1.06,1.06,0,0,1,.37-.58,7.48,7.48,0,0,0,.66-1.1l.29-.58.29-.59.07-.14.08-.15c.19-.24.41-.54.66-.88l.51-1A22.87,22.87,0,0,1,155,4a7.54,7.54,0,0,1,2.27-1.75l.51-.22.58-.15.81-.37.8-.29.58-.14a1.13,1.13,0,0,1,.66-.08.47.47,0,0,0,.37,0A2.52,2.52,0,0,1,162.65.8l.52.08.58.07,1.46.22a3.36,3.36,0,0,1,.88.29l1.53.66.44.29.51.29.51.37.15.07.15.08a9.89,9.89,0,0,1,2.12,2.63,6,6,0,0,0,.87,1.6,5,5,0,0,1,1,2.12l.22.51.15.44v.29l.07.37.08.73a3.2,3.2,0,0,0,.22.95,2.8,2.8,0,0,1,.51,1.46l.07.22.07.15a10.46,10.46,0,0,1,.44,3.43l.08.66.14.66.59,2.92v.07a10.53,10.53,0,0,0,.29,2.05v1.17a1.83,1.83,0,0,0,.14.58l.08.29a.58.58,0,0,1,.07.22l.07,1.68.08.66v.66a12.69,12.69,0,0,0,.07,1.31l.15,1.32.21,1.75a10.27,10.27,0,0,1,0,1.76,8.49,8.49,0,0,0,.15,1.31l.07.73v3.22l.08.44.07.51.15,1,.07,1.1.29,2.12.29,1.31ZM167,36.53v-.29l-.37-4.45L166.31,29l-.22-2.7c-.1-.78-.22-1.71-.37-2.78l-.44-2.7-.51-3.15-.14-1.31-.3-1.24-.58-2.05-.58-2a10.93,10.93,0,0,0-1.61-3.58L161.19,7l-.36-.44a.67.67,0,0,0-.73-.3,2.61,2.61,0,0,0-1.17.37l-.81.73a3.64,3.64,0,0,0-.73.8l-.36.59-.37.66-.73,1.09-.8,1.17a18.19,18.19,0,0,0-2,4l-.58,1.46-.3.73-.21.8-.37,1.68L151.25,22l-.14.44-.07.51-.08.66a2.52,2.52,0,0,1-.22.73v.37l-.14,1.09-.15.73-.14.74-.3,3.06-.29,3.15c-.05.58.22.85.8.8a13.15,13.15,0,0,1,4.68.73l.66.22.73.22,2.78.58.8.22.88.15,1.9.14,1.9.15.58.07.66.08.36.07L167,37Z"/><path class="cls-1" d="M209,36.17h.88a1.86,1.86,0,0,1,.73.44,1.19,1.19,0,0,1,.29.66,3.37,3.37,0,0,1,.07.8v1l-.58,2.12-.81,2.7-.29.81-1.17,3.07a2.18,2.18,0,0,1-.95,1,1.62,1.62,0,0,0-.73.51l-.73.8-.66.73a2.14,2.14,0,0,1-.73.44,3.48,3.48,0,0,0-1,.51l-.8.66a4,4,0,0,1-2.42.8l-1.46-.07a6.32,6.32,0,0,0-1.38,0,1.53,1.53,0,0,1-.81-.07l-.8-.29-2.49-.88-1.24-.44a4,4,0,0,1-1.17-.51,6.26,6.26,0,0,1-1.09-.8l-1-.88-.88-1-.81-.88-.73-.88a8.55,8.55,0,0,1-.87-1.82l-.73-2.56L184,39.6l-.22-1-.22-.95-.15-1.1-.14-1-.08-.22-.07-2.19V31l.07-2.34.08-2.41c.1-.39.19-.85.29-1.39l.15-1.38.14-.44.15-.51.15-1.17.21-1.1.44-1.75.44-1.68.29-.95.22-.95a13.8,13.8,0,0,1,1.1-3.66l.66-1.53.8-1.61,1-1.46,1-1.46.58-.81.51-.8a1.22,1.22,0,0,1,.59-.51l.73-.44.66-.44,1.68-.95A2.25,2.25,0,0,1,196.63,1l.22.08a9.71,9.71,0,0,1,4.09.43A14.28,14.28,0,0,1,205,4a4.12,4.12,0,0,1,.8,1.1l.3.43.22.37a7.39,7.39,0,0,1,.29.73l.07.29.22.37a3,3,0,0,1,.29.87,1.09,1.09,0,0,1-.29.59,1.88,1.88,0,0,1-.58.44l-.3-.08-.22-.07c-.29-.15-.51-.27-.65-.36a12.7,12.7,0,0,1-1.1-.81l-.37-.36-.43-.3-.59-.43-.22-.22-.22-.22a4.29,4.29,0,0,0-2.63-1,1,1,0,0,0-.73.15,6.62,6.62,0,0,0-.58.51l-.29.22-.15.15-.22.14a2.92,2.92,0,0,0-.73,1.25l-.37.73-.36.8-.22.44-.15.51-.14.37-.22.36A2.79,2.79,0,0,0,195,12.2l-.29.81-.22.87-.37,1.46-.22,1-.14,1-.15,1-.22,1-.14.66-.15.59-.15.73-.07.73-.29.87a7.35,7.35,0,0,0-.22,1.32l-.15,1.32V26a2.93,2.93,0,0,0,0,1.32,1.94,1.94,0,0,1-.07,1.17,4,4,0,0,0-.07.8v3.22a7.53,7.53,0,0,1,.29,1.75l.07.88.07.87.22,1.32.15,1.31a22.52,22.52,0,0,0,1,3.66,1.48,1.48,0,0,1,.22.8,4.85,4.85,0,0,0,.81,2.19A3.77,3.77,0,0,0,198,47.2a1.74,1.74,0,0,0,1-.14l1.24-.44a4.43,4.43,0,0,1,1.31-.22A7.28,7.28,0,0,0,203.79,44l.51-1,.51-1,.37-1,.29-1,.29-1.17.22-.58.22-.3.29-.29.3-.44.36-.36.59-.59Z"/><path class="cls-1" d="M240.33,48A9.58,9.58,0,0,1,241.2,52v.88l-.07.22-1.39,1.17-1.24-.08-.51-.07h-.37l-.44-.07a1.46,1.46,0,0,1-1-.22l-.36-.22-.44-.22a1.31,1.31,0,0,1-.66-.51l-.44-.88a2.3,2.3,0,0,1-.36-.87,5.38,5.38,0,0,0-.59-1.68l-.36-.88-.29-.8A3.13,3.13,0,0,0,232,46.4c-.15-.2-.32-.44-.52-.73l-.43-.81a49.68,49.68,0,0,0-2.78-4.38l-.37-.58-.36-.59-1.1-1.61-.14-.07-.08-.15-.73.3.22,2.19v.22l.07.22a7.08,7.08,0,0,0,0,1.31L226,43v1.24a21.18,21.18,0,0,1,.08,3v.8l.07.88a5.68,5.68,0,0,1-.22,2.85,1.4,1.4,0,0,1-.66.73l-.58.29-1,.44a9,9,0,0,1-1.68.66h-1.61l-.66-.3-.37-.14-.36-.08-.29-.07-.22-.07a1.17,1.17,0,0,1-.29-.08l-.37-.21a1.65,1.65,0,0,0-.8-.08q-.22.08-.66-.36a1.48,1.48,0,0,1-.44-.81,3.24,3.24,0,0,0-.66-1.53,3.07,3.07,0,0,1-.44-1.54c0-1.12-.09-2.43-.14-3.94v-.95l-.08-.66v-.73c0-1.27-.07-2-.07-2.26l-.07-2v-.29l-.07-.37V35.8l-.08-.58v-.51l-.07-3.44-.15-2.41L214,28l-.07-2.2-.22-2.19-.22-1.9-.22-1.9V19L213,16.73v-1l-.15-1.9-.07-1.9a10.09,10.09,0,0,1-.07-1.38l.07-1.39c0-.73,0-1.37-.07-1.9a12.19,12.19,0,0,1,0-2.85,25.23,25.23,0,0,1,.14-2.56l.44-.22.8-.36A8.61,8.61,0,0,1,215.63.8l.36.08h.44l.44.07a6.35,6.35,0,0,0,1.53.15h.73a4.07,4.07,0,0,1,.81.07,1.52,1.52,0,0,0,.95-.22,1.29,1.29,0,0,1,.88,0l.51.07a1,1,0,0,0,.44-.07L223.3.8l.58-.14a4.42,4.42,0,0,1,2-.44l.29.07a6,6,0,0,1,3.36.51,17.35,17.35,0,0,1,4,2.12l.36.22a7.88,7.88,0,0,1,2.92,2.27l1.61,1.9.22.29.29.66.3.65a7.29,7.29,0,0,1,.58,1.32,18.72,18.72,0,0,1,.66,3.43v.81l-.07.73-.15,1.1-.15,1a7.32,7.32,0,0,1-.22,1.68l-.22.87-.14.81A9.35,9.35,0,0,1,238,24.11l-.15.22-.73.66-.66.73A14.5,14.5,0,0,1,235,27l-.36.29-.3.29-1.9,1.46-.73.59-.73.51a.66.66,0,0,0-.29.8l.07.81.15.8a7,7,0,0,0,.8,1.46L233,35.8l1.31,1.76,1,1.68,1.09,1.68,1,1.46.88,1.46.66,1.24.58,1.32.37.8ZM225.49,26.82a9.85,9.85,0,0,0,2.49-1A20,20,0,0,0,231.19,24l1.1-.88a8.48,8.48,0,0,0,1-.95,8.12,8.12,0,0,0,1.17-5,34.46,34.46,0,0,0-.3-4.53,6.77,6.77,0,0,0-1.17-3.43,4.52,4.52,0,0,0-1.24-1.1L231,7.67l-.65-.51a7.57,7.57,0,0,1-.95-.66l-.81-.44-1-.51L226.59,5a2.33,2.33,0,0,0-2.05.08,1,1,0,0,0-.44.43l-.07.3v.29l-.15.36-.07.37-.22.51a.59.59,0,0,0,.08.51,3.34,3.34,0,0,1,.14,2.34v.37l.15,2,.07.95v2.63l.15,1.61h-.08l.08,1.31.07,2.05v.66a2.3,2.3,0,0,0,.07.58l.15.44a4.73,4.73,0,0,1,.07.8l.08.74.07.58a5.75,5.75,0,0,1,0,1.32c0,.14.1.26.29.36l.22.07Z"/><path class="cls-1" d="M265.83,1.24a2.46,2.46,0,0,1,1.31.81l.37.36.22.37a1.28,1.28,0,0,1,.14,1,2.8,2.8,0,0,1-.29.58l-.22.22-.15.15a1.43,1.43,0,0,1-.51.8l-.44.3-.43.21a1.59,1.59,0,0,1-.66.22l-.73.15-.81.15-.51.14h-.51a2.53,2.53,0,0,0-1,.08H261l-.73-.08a7.63,7.63,0,0,0-1.39,0l-1.53.44a.89.89,0,0,0-.58.73V9.13a6.71,6.71,0,0,1,0,1.32l-.22,1.24a11.81,11.81,0,0,0-.3,2.19l-.07,1.1-.07,1.1v.22a5.57,5.57,0,0,0-.15,2l.07.51v.44c.05.29.08.46.08.51l-.15.44-.07.51a2.2,2.2,0,0,1,0,.81l-.07.29a.8.8,0,0,0-.08.36v.95l-.07.88c0,.29.19.44.58.44l.59-.07,4.6-.66a1.24,1.24,0,0,1,.88.14.8.8,0,0,0,.36.08,2.48,2.48,0,0,1,1.61.51l.15.15.14.07a2,2,0,0,1,1.32,1.75,1.14,1.14,0,0,1-.15,1l-.29.37-.22.36a2.11,2.11,0,0,1-.73.59l-.07.07a2,2,0,0,1-1,.73l-.58.15-.58.07a15.54,15.54,0,0,0-2.34.37l-2.27.51a5.74,5.74,0,0,1-.8.07.58.58,0,0,0-.59.37c-.05.19-.07,1.26-.07,3.21l-.07,1.25v1.24c0,1,0,1.73-.08,2.26a7.35,7.35,0,0,1,.08,2L256,42.38l-.07,1.46c0,.78,0,1.49.07,2.12l.07.44v.44a11,11,0,0,1,.08,1.39.64.64,0,0,0,.22.73,1.33,1.33,0,0,0,.73.36c.19,0,.58,0,1.17.08h1.9a15.26,15.26,0,0,0,3-.08.47.47,0,0,1,.37,0,3.06,3.06,0,0,0,1.24.22h1.46a3.83,3.83,0,0,1,.59,2l-.37.66-.44.59a.93.93,0,0,1-.51.36c-.54.05-1.95.12-4.24.22l-1.31.07-1.17.08c-.83,0-1.42.09-1.76.14l-1.53.15-2.19.22a1.91,1.91,0,0,1-1.24-.22l-.15-.07h-.15a3,3,0,0,1-1.24-.3l-.58-.22-.59-.29-.66-.29-.73-.22a1.34,1.34,0,0,1-.8-1.09.64.64,0,0,0-.51-.66.75.75,0,0,1-.44-.66l-.22-.66-.29-.73a4.14,4.14,0,0,1-.07-1.09,6.94,6.94,0,0,1,0-1.47,6.42,6.42,0,0,0,0-1.24l-.15-1.24a36.88,36.88,0,0,1,0-5l.07-1.61V35.59a12.32,12.32,0,0,0,0-2l-.22-2.48-.22-2.49c-.09-.82-.17-2.21-.22-4.16a26.66,26.66,0,0,1,.08-3.87V18.93a8.49,8.49,0,0,1,0-1.61l.07-.15a10.3,10.3,0,0,0,.29-2.12l.08-1.09.07-1,.22-2,.22-2.12c.05-.49.14-1.12.29-1.9l.22-1,.22-.88.14-.87.08-.81A1.9,1.9,0,0,1,247.56,2l.58-.44a1.78,1.78,0,0,1,.66-.29,3.88,3.88,0,0,1,.88-.14H252l.58.07a8.58,8.58,0,0,0,2.12-.07,13.81,13.81,0,0,1,2.41-.3h1.24l1.25-.07a8.79,8.79,0,0,0,1.89-.22,3.75,3.75,0,0,1,1.61.07l1.39.3Z"/><path class="cls-1" d="M297,35.88a5.14,5.14,0,0,1,.36,1.09l.22,1.1a26,26,0,0,1,.07,5.92,9.59,9.59,0,0,1-2.48,5.84,4.08,4.08,0,0,1-.66.66l-.29.29-.29.3-.37.36-.36.37a2.92,2.92,0,0,1-1.25.44l-.65.07a3.24,3.24,0,0,0-.59.29l-.36.29-.37.29a4.43,4.43,0,0,1-.73.15H289l-.37.07c0,.05-.09.08-.29.08a2.88,2.88,0,0,1-.73.22c-.83.14-1.71.26-2.63.36a28.39,28.39,0,0,1-8.11-.14,10.36,10.36,0,0,1-5-2.42,13.63,13.63,0,0,1-2.05-2,7.42,7.42,0,0,1-1.46-2.56l-.22-.73-.29-.8a1.78,1.78,0,0,1-.29-.66l-.22-.8L267,42.75l-.29-1.17a7.45,7.45,0,0,1-.36-1.83,2.3,2.3,0,0,1,.14-1,.73.73,0,0,1,.37-.29l.22-.22.29-.3a2.85,2.85,0,0,1,1.75-.73l.15-.07.07-.07.51.14.52.15a1.92,1.92,0,0,1,.58.36H271l.08.08a1.83,1.83,0,0,1,.22.51v.07a2.82,2.82,0,0,1,.43,1.39l.08.66.07.73a10.84,10.84,0,0,0,1.24,3.07,9.88,9.88,0,0,0,1.39,2.26l1.1.81,1.09.87a4.89,4.89,0,0,0,1.39.44,14,14,0,0,0,1.46.29l-.07-.07h1.17a9.13,9.13,0,0,0,4.53-1.9c1.8-1.36,2.78-2.8,2.92-4.31v-.73l.15-.73.07-.22.07-.22a6.05,6.05,0,0,0-.73-3.14,14,14,0,0,0-.87-1.76l-1-1.68-.58-.8-.59-.73-2.33-2.78-1.17-1.46-1.25-1.46-.65-.8-.66-.81L278,24.7l-.66-.51a3.77,3.77,0,0,1-.95-.59A6.91,6.91,0,0,1,275,21.85l-.59-1-.65-.95-1-1.17c-.39-.49-.71-.9-.95-1.24a12.4,12.4,0,0,1-1.68-7.46c.29-3.36,1.38-5.87,3.29-7.52A8.11,8.11,0,0,1,276.49,1a19.93,19.93,0,0,1,4.83-.73h.14a1.49,1.49,0,0,1,1,.08h.29L282.7.29l.22.08.3.07V.51a8.52,8.52,0,0,1,3.65,2.56l.37.58c.29,0,.48.22.58.66l.36,1.61.3,1.61a.77.77,0,0,1-.08.36,1.83,1.83,0,0,1-1.24,2.05,1,1,0,0,1-1.39-.08l-.36-.21A3,3,0,0,1,284,7.53L284,7.16l-.08-.29a1.55,1.55,0,0,0-1.38-1.24,5,5,0,0,0-2.49.22,2,2,0,0,0-.8.8,2.89,2.89,0,0,0-.51,1.1,7.65,7.65,0,0,0-.15,2.26l.07.51.08.51c0,.35.07.59.07.74a14.18,14.18,0,0,0,2.56,4.74l.73.73.8.74c.2.24.49.63.88,1.16l.44.66.51.59.87.87.95.81a36.9,36.9,0,0,1,4.1,4.16l1.9,2.27c.73.87,1.36,1.61,1.9,2.19l.29.29.29.29.37.73,1.16,2.85.08.22Z"/><path class="cls-2" d="M0,71.33H7.56c9.16,0,14.56,6.34,14.56,14.19S16.72,99.66,7.56,99.66H0ZM7.56,94.6c5.32,0,8.7-3.8,8.7-9.08s-3.38-9.12-8.7-9.12H5.4V94.6Z"/><path class="cls-2" d="M24.87,85.52c0-8,5.23-14.53,14-14.53s14,6.51,14,14.53S47.62,100,38.84,100,24.87,93.5,24.87,85.52Zm22.16,0c0-5.53-3.21-9.46-8.19-9.46s-8.1,3.93-8.1,9.46,3.2,9.41,8.1,9.41S47,91,47,85.52Z"/><path class="cls-2" d="M55.6,85.52c0-8,5.24-14.53,14.06-14.53A13.17,13.17,0,0,1,81.35,77.2l-4.93,3.13a8,8,0,0,0-6.76-4.27c-5,0-8.15,3.93-8.15,9.46s3.17,9.41,8.15,9.41c3.59,0,6.5-2.61,7.51-6.2H69.66V84H82.88V99.66H78.23v-3A12,12,0,0,1,69.66,100C60.84,100,55.6,93.5,55.6,85.52Z"/><path class="cls-2" d="M100.27,71.33h10.21c6.93,0,11,3.76,11,8.4a7,7,0,0,1-3,5.79,6.88,6.88,0,0,1,3,5.7c0,4.64-4.09,8.44-11,8.44H100.27Zm10.21,12c3.42,0,5.58-1.48,5.58-3.51s-2.16-3.46-5.58-3.46h-4.81v7Zm0,11.23c3.42,0,5.58-1.48,5.58-3.51s-2.16-3.42-5.58-3.42h-4.81V94.6Z"/><path class="cls-2" d="M124.33,85.52c0-8,5.24-14.53,14-14.53s14,6.51,14,14.53-5.23,14.48-14,14.48S124.33,93.5,124.33,85.52Zm22.17,0c0-5.53-3.21-9.46-8.19-9.46S130.2,80,130.2,85.52s3.21,9.41,8.11,9.41S146.5,91,146.5,85.52Z"/><path class="cls-2" d="M171.53,92.82H160.17l-2.61,6.84h-5.7l11.48-28.33h5.07l11.48,28.33h-5.74Zm-2.07-5.4L165.87,78l-3.63,9.46Z"/><path class="cls-2" d="M182.76,71.33H193c6.88,0,11,4.22,11,9.42A8.89,8.89,0,0,1,198.51,89L204,99.66h-5.45l-4.94-9.5-1.31,0h-4.14v9.46h-5.4ZM193,85.1c3.38,0,5.53-1.82,5.53-4.35S196.4,76.4,193,76.4h-4.86v8.7Z"/><path class="cls-2" d="M207.88,71.33h7.56c9.16,0,14.56,6.34,14.56,14.19s-5.4,14.14-14.56,14.14h-7.56Zm7.56,23.27c5.32,0,8.69-3.8,8.69-9.08s-3.37-9.12-8.69-9.12h-2.16V94.6Z"/><path class="cls-2" d="M233.67,71.33h5.41V99.66h-5.41Z"/><path class="cls-2" d="M266.31,71.33V99.66h-5.45l-11.94-19.5v19.5h-5.41V71.33H249l12,19.51V71.33Z"/><path class="cls-2" d="M270,85.52c0-8,5.24-14.53,14.06-14.53a13.17,13.17,0,0,1,11.7,6.21l-4.94,3.13a7.93,7.93,0,0,0-6.76-4.27c-5,0-8.14,3.93-8.14,9.46s3.16,9.41,8.14,9.41c3.59,0,6.51-2.61,7.52-6.2h-7.52V84H297.3V99.66h-4.65v-3a12,12,0,0,1-8.57,3.29C275.26,100,270,93.5,270,85.52Z"/></g></g></g></g></svg>